<svg width="214" height="190" viewBox="0 0 214 190" fill="none" xmlns="http://www.w3.org/2000/svg">
<g clip-path="url(#clip0_1114_1796)">
<path d="M115.564 137.099C115.514 136.851 115.215 135.714 114.319 135.368C113.572 135.072 113.124 135.615 111.929 135.665C110.884 135.714 109.639 135.368 108.942 134.676C108.294 134.033 108.294 133.242 108.344 130.622C108.344 123.898 108.195 124.887 108.344 122.613C108.444 120.684 108.543 120.487 108.394 119.844C107.896 117.767 106.153 116.482 104.66 115.394C102.27 113.614 99.9794 113.021 99.4815 112.922C97.7886 112.477 94.602 111.736 92.0129 113.219C90.7681 113.96 89.2744 114.949 89.6229 116.828C90.071 119.349 92.9091 118.905 93.1581 118.806C94.2534 118.361 96.6434 117.471 98.4359 117.668C99.2325 117.767 100.925 118.558 101.274 118.905C102.469 120.091 103.216 122.118 102.469 122.909C102.071 123.354 101.324 123.354 101.224 123.305C100.278 123.008 100.079 122.86 99.6806 122.613C97.9877 121.525 95.4484 122.069 95.0501 122.217C92.8095 122.81 91.6643 124.392 91.1166 125.085C89.6229 127.112 89.4735 129.188 89.4238 130.128C89.374 131.067 89.1748 134.231 91.515 137C93.3074 139.126 96.2949 140.658 98.9338 140.263C100.129 140.115 101.473 139.917 102.718 138.928C103.315 138.434 103.763 137.89 104.56 137.89C105.207 137.84 105.705 138.236 106.353 138.681C108.344 140.115 109.39 140.807 109.788 141.004C110.983 141.499 112.925 141.697 114.269 140.559C115.165 139.818 115.863 138.434 115.564 137.099ZM99.9296 134.132C98.2367 134.973 95.9463 134.528 94.9007 133.094C93.9547 131.759 94.4028 130.177 94.5024 129.683C94.602 129.336 95.0999 127.408 96.9919 126.617C97.3405 126.469 98.7346 125.925 100.179 126.667C101.523 127.408 101.871 128.793 101.921 128.99C102.618 131.067 101.722 133.242 99.9296 134.132Z" fill="white"/>
<path d="M160.475 90.7234C160.425 90.3279 159.977 88.3008 158.434 87.6086C157.139 87.0154 156.342 87.9053 154.251 87.9053C152.409 87.9053 150.268 87.2131 149.123 85.9277C148.027 84.7411 148.177 83.4062 148.376 78.8577C148.973 67.1897 148.625 68.9201 149.023 64.9649C149.372 61.6029 149.521 61.3063 149.322 60.1691C148.575 56.4611 145.737 54.1868 143.248 52.1598C139.214 48.8967 135.281 47.7101 134.435 47.4135C131.547 46.5236 126.07 44.9415 121.439 47.364C119.199 48.5012 116.56 50.1327 116.958 53.3958C117.506 57.796 122.435 57.2521 122.933 57.1038C124.875 56.4117 129.107 55.0768 132.144 55.5712C133.489 55.8184 136.426 57.351 136.974 57.9938C138.916 60.1197 140.061 63.7289 138.717 65.0638C138.02 65.7559 136.725 65.7065 136.526 65.657C134.883 65.1132 134.534 64.8166 133.887 64.3221C130.999 62.2951 126.617 63.0861 125.871 63.2345C121.937 64.0749 119.796 66.7447 118.85 67.8819C116.062 71.2438 115.664 74.853 115.464 76.4845C115.315 78.1161 114.718 83.604 118.452 88.5975C121.389 92.4538 126.418 95.3214 131.049 94.8764C133.14 94.6786 135.48 94.4314 137.721 92.8988C138.816 92.1572 139.663 91.2178 141.007 91.2178C142.152 91.2178 142.949 91.8605 144.094 92.7505C147.48 95.3708 149.123 96.7057 149.87 97.0518C151.861 97.9912 155.247 98.4856 157.737 96.7057C159.529 95.4202 160.873 93.0471 160.475 90.7234ZM133.688 84.5928C130.651 85.9277 126.717 84.9389 125.024 82.3679C123.481 79.9948 124.377 77.2756 124.676 76.3856C124.875 75.7924 125.92 72.4798 129.256 71.2933C129.854 71.0955 132.343 70.2056 134.733 71.6393C137.024 73.0237 137.522 75.4463 137.571 75.8418C138.567 79.4509 136.825 83.159 133.688 84.5928Z" fill="white"/>
<path d="M102.021 90.7234C101.971 90.3279 101.523 88.3008 99.9796 87.6086C98.685 87.0154 97.8883 87.9053 95.7971 87.9053C93.9549 87.9053 91.8139 87.2131 90.6687 85.9277C89.5733 84.7411 89.7227 83.4062 89.9219 78.8577C90.5193 67.1897 90.1708 68.9201 90.5691 64.9649C90.9177 61.6029 91.067 61.3063 90.8679 60.1691C90.121 56.4611 87.283 54.1868 84.7934 52.1598C80.7604 48.8967 76.8269 47.7101 75.9805 47.4135C73.0926 46.5236 67.6157 44.9415 62.9851 47.364C60.7446 48.5012 58.1057 50.1327 58.504 53.3958C59.0517 57.796 63.981 57.2521 64.4789 57.1038C66.4207 56.4117 70.6529 55.0768 73.6901 55.5712C75.0345 55.8184 77.9721 57.351 78.5198 57.9938C80.4616 60.1197 81.6068 63.7289 80.2625 65.0638C79.5654 65.7559 78.2709 65.7065 78.0717 65.657C76.4286 65.1132 76.0801 64.8166 75.4328 64.3221C72.5449 62.2951 68.1634 63.0861 67.4165 63.2345C63.483 64.0749 61.3421 66.7447 60.396 67.8819C57.6078 71.2438 57.2094 74.853 57.0103 76.4845C56.8609 78.1161 56.2634 83.604 59.9977 88.5975C62.9353 92.4538 67.9642 95.3214 72.5947 94.8764C74.6859 94.6786 77.0261 94.4314 79.2667 92.8988C80.3621 92.1572 81.2085 91.2178 82.5528 91.2178C83.698 91.2178 84.4947 91.8605 85.6399 92.7505C89.0256 95.3708 90.6687 96.7057 91.4156 97.0518C93.4072 97.9912 96.793 98.4856 99.2825 96.7057C101.075 95.4202 102.419 93.0471 102.021 90.7234ZM75.2336 84.5928C72.1964 85.9277 68.2629 84.9389 66.5701 82.3679C65.0266 79.9948 65.9228 77.2756 66.2215 76.3856C66.4207 75.7924 67.4663 72.4798 70.8023 71.2933C71.3997 71.0955 73.8893 70.2056 76.2792 71.6393C78.5696 73.0237 79.0675 75.4463 79.1173 75.8418C80.1131 79.4509 78.3704 83.159 75.2336 84.5928Z" fill="white"/>
<path d="M161.471 139.373C161.421 139.126 161.172 137.989 160.276 137.593C159.529 137.247 159.081 137.741 157.886 137.741C156.84 137.741 155.595 137.346 154.948 136.604C154.351 135.912 154.4 135.17 154.55 132.55C154.898 125.826 154.699 126.815 154.948 124.541C155.147 122.613 154.849 115.345 154.4 112.329C154.102 110.351 153.355 104.616 151.513 104.764C146.334 105.209 148.027 113.12 148.226 116.086C148.376 118.212 149.77 123.799 149.023 124.59C148.625 124.986 147.878 124.936 147.778 124.936C147.031 124.887 146.534 124.392 146.235 124.195C144.642 122.959 142.052 123.453 141.654 123.552C139.414 124.046 138.169 125.579 137.621 126.222C136.028 128.15 135.779 130.226 135.679 131.166C135.58 132.105 135.231 135.269 137.422 138.137C139.115 140.362 142.003 141.993 144.691 141.746C145.886 141.647 147.231 141.499 148.525 140.609C149.172 140.164 149.621 139.62 150.417 139.62C151.065 139.62 151.562 140.016 152.21 140.51C154.152 142.043 155.098 142.784 155.546 142.982C156.691 143.526 158.633 143.823 160.077 142.784C160.923 142.092 161.72 140.757 161.471 139.373ZM146.036 136.209C144.293 137 142.003 136.406 141.057 134.923C140.16 133.588 140.708 131.957 140.857 131.462C140.957 131.116 141.604 129.238 143.496 128.545C143.845 128.447 145.289 127.903 146.633 128.743C147.977 129.534 148.226 130.968 148.276 131.166C149.172 134.429 147.529 135.517 146.036 136.209Z" fill="white"/>
<path d="M50.9854 8.55321C47.3507 5.53734 41.575 4.10356 29.9738 1.33489C22.7541 -0.395525 19.9659 -0.395525 17.6755 1.08769C14.0408 3.4114 13.1943 9.49258 13.1445 12.6073C12.9952 20.2706 15.9826 81.5769 18.3228 89.0919C20.0654 94.7281 23.3018 95.7663 26.7872 94.5303C28.7788 93.8382 29.6252 91.5144 30.1729 89.9323C32.7123 82.4668 28.2809 77.9677 30.2227 68.7224C30.6708 66.4481 31.3181 65.0638 32.2641 63.8772C34.903 60.5647 39.1352 60.0208 40.7285 59.7242C49.1432 57.9938 57.0599 47.3146 59.4498 38.0692C62.0389 27.9833 59.2009 15.4749 50.9854 8.55321ZM37.8905 44.3976C35.8491 46.3752 31.7662 49.0945 29.675 47.7596C28.1813 46.8202 26.5382 23.5337 28.5298 22.2977C31.5173 20.4684 41.3758 25.9068 42.1725 33.9162C42.77 39.4536 38.7369 43.5571 37.8905 44.3976Z" fill="white"/>
<path d="M91.0172 30.8509C88.7766 29.8621 86.0381 30.6037 84.2954 31.8397C83.8473 32.1363 81.1586 34.0645 81.5072 36.586C81.8059 38.7119 84.1958 40.0963 85.9385 40.4918C88.677 41.1345 90.0711 39.503 91.8636 40.3435C93.7059 41.2334 94.154 43.9526 94.3531 45.3864C95.4983 53.7913 95.5481 67.0414 96.3448 75.7429C96.5937 78.5116 98.8841 80.9342 100.378 81.3297C102.17 81.8241 107.548 81.033 108.294 77.4239C109.29 72.6776 106.651 69.3156 104.361 52.5059C103.614 47.1663 102.718 44.5954 104.759 42.5189C106.353 40.9368 108.743 39.4041 111.033 39.9974C115.116 41.0356 115.713 45.337 118.452 45.2381C120.493 45.1392 122.584 42.6177 122.734 40.3435C123.033 36.4377 117.805 33.224 114.17 32.1858C110.336 31.0981 106.502 31.0487 102.618 33.1252C100.029 34.5095 99.9297 36.0422 98.2368 35.6466C95.6975 35.0533 94.0046 32.1363 91.0172 30.8509Z" fill="white"/>
<path d="M56.3628 98.8316C51.782 95.6674 43.9649 93.4426 38.9858 96.3102C29.8742 101.551 31.816 122.613 39.8323 135.863C41.077 137.89 48.2469 149.805 55.3172 148.272C60.7443 147.086 63.0347 138.681 63.1343 138.186C63.2339 137.741 64.9267 131.067 62.2878 129.584C60.5452 128.595 58.1552 129.188 57.3586 132.352C56.5121 135.863 53.8732 137.89 52.4791 138.087C50.1887 138.434 47.0519 130.325 46.6038 129.139C44.5126 123.849 41.2762 106.742 43.9649 105.753C46.1059 104.962 52.5289 107.929 54.2218 111.043C55.0184 112.477 55.118 113.713 56.5619 115.048C56.8109 115.295 58.9519 117.273 60.595 116.729C62.8853 115.988 63.682 110.45 62.2878 106.198C60.9933 102.095 57.7569 99.8204 56.3628 98.8316Z" fill="white"/>
<path d="M66.5701 119.745C66.3211 120.635 66.5203 129.04 67.0182 132.204C67.6157 135.714 67.5161 139.373 69.6073 141.647C70.8023 142.933 72.8437 143.921 74.4868 143.674C79.5156 143.031 78.6692 139.719 81.0591 140.213C81.4077 140.263 81.9554 140.411 82.5529 141.202C84.0466 143.031 85.839 144.564 86.8846 144.465C87.8804 144.366 89.6729 142.735 89.4737 141.054C89.2248 138.928 83.6482 139.768 84.2955 131.71C84.7436 126.172 84.0964 124.145 85.5901 121.475C87.6813 117.668 81.806 116.185 79.8642 118.311C78.8683 119.399 79.2169 126.568 78.8683 129.238C78.5198 131.71 78.47 136.159 76.7771 136.505C73.7897 137.099 72.9931 134.577 72.4454 131.66C71.8479 128.298 72.4952 125.085 73.242 121.92C73.6403 120.19 72.8935 118.509 71.5989 117.718C69.7567 116.581 67.1178 117.619 66.5701 119.745Z" fill="white"/>
<path d="M132.841 130.226C133.04 129.287 132.542 120.981 131.895 117.767C131.198 114.257 131.099 110.648 128.908 108.423C127.663 107.187 125.622 106.297 123.929 106.594C118.95 107.434 119.945 110.697 117.506 110.302C117.157 110.252 116.609 110.104 115.962 109.412C114.369 107.632 112.527 106.198 111.531 106.347C110.535 106.495 108.842 108.176 109.091 109.857C109.44 111.983 114.966 110.945 114.618 119.003C114.369 124.541 115.116 126.518 113.722 129.287C111.78 133.193 117.705 134.429 119.547 132.204C120.493 131.067 119.846 123.947 120.095 121.228C120.344 118.707 120.194 114.307 121.887 113.911C124.875 113.219 125.771 115.691 126.418 118.558C127.165 121.871 126.617 125.134 126.02 128.348C125.721 130.078 126.518 131.759 127.812 132.501C129.804 133.489 132.393 132.352 132.841 130.226Z" fill="white"/>
<path d="M174.715 119.547C172.226 115.444 166.35 112.823 161.919 115.147C157.039 117.718 157.189 124.64 158.583 128.447C158.981 129.534 160.226 133.044 163.911 134.478C164.11 134.528 167.695 135.912 171.08 134.182C175.611 131.808 177.802 124.64 174.715 119.547ZM169.039 128.199C167.446 129.238 165.106 128.99 163.911 127.655C162.815 126.419 163.114 124.788 163.213 124.294C163.263 123.947 163.612 121.97 165.404 121.03C165.703 120.882 167.047 120.141 168.541 120.734C169.985 121.327 170.433 122.662 170.533 122.909C171.379 124.887 170.682 127.161 169.039 128.199Z" fill="white"/>
<path d="M170.533 62.4434C173.67 54.9779 172.973 52.3081 175.313 48.9956C175.711 48.4023 178.051 45.2381 182.084 44.2493C186.416 43.211 190.101 45.2875 192.49 46.6224C194.98 48.0562 200.656 51.2204 200.905 56.115C201.104 59.8725 197.967 62.6906 194.482 65.8548C192.092 68.0302 187.262 71.6888 181.188 74.9519C179.644 75.7924 178.798 76.1384 178.051 77.1767C176.06 79.8959 177.752 82.8624 179.047 89.6357C180.839 98.9305 179.744 104.122 183.329 106.099C184.026 106.495 184.673 106.643 185.072 106.742C188.408 107.484 202.648 103.875 203.146 102.391C203.444 101.551 202.598 100.76 201.403 99.2766C199.411 96.8046 198.067 94.2337 195.378 89.0424C193.088 84.5928 191.943 82.3185 192.64 80.1926C193.337 78.1161 195.129 77.2756 197.42 75.8418C202.698 72.5293 208.274 67.5358 210.714 63.1356C214.05 57.1038 212.556 50.4294 212.357 49.5394C209.27 36.6354 193.138 32.433 190.748 31.8397C186.864 30.8509 180.192 29.1205 172.923 32.2352C160.824 37.4265 158.683 51.171 158.334 53.2969C157.836 56.4611 156.99 61.8007 160.226 64.5199C162.317 66.2998 166.201 66.9919 168.491 65.4098C169.587 64.5694 170.085 63.5805 170.533 62.4434Z" fill="white"/>
<path d="M195.179 113.071C198.913 111.785 202.15 114.059 203.046 114.702C204.141 115.444 206.133 116.828 206.482 119.251C206.979 122.514 204.092 124.887 203.793 125.134C201.054 127.309 197.171 127.161 194.432 125.727C193.885 125.431 190.25 123.552 190.051 119.844C189.951 116.68 192.49 114.01 195.179 113.071Z" fill="white"/>
<path d="M94.0049 108.077C94.0049 106.693 97.9383 103.973 100.776 102.639C102.917 101.65 104.809 100.76 105.805 102.045C106.502 102.935 106.751 104.814 106.104 105.753C104.909 107.632 102.569 105.753 99.4321 108.571C98.6354 109.264 96.3948 110.203 95.2994 109.956C94.3534 109.709 94.0049 108.819 94.0049 108.077Z" fill="white"/>
<path d="M6.72173 159.199L4.87948 167.257L11.8004 162.659L13.1447 163.549L7.76733 171.311L6.72173 170.619L8.81294 167.603L11.1531 164.39L4.2322 168.889L3.48534 168.394L5.2778 160.385L3.13681 163.698L1.0456 166.714L0 166.021L5.37739 158.259L6.72173 159.199Z" fill="white"/>
<path d="M14.0409 174.723C14.0409 174.575 14.0907 174.327 14.2401 173.981C13.4932 174.228 12.7464 174.179 12.0493 173.833C11.4518 173.487 11.0037 173.091 10.8045 172.498C10.6054 171.954 10.6552 171.41 10.9041 170.867C11.2526 170.224 11.7506 169.878 12.4476 169.779C13.1447 169.68 13.9413 169.878 14.7878 170.323L15.8334 170.867L16.0823 170.372C16.2815 170.026 16.3313 169.631 16.2317 169.334C16.1321 168.988 15.8334 168.691 15.4351 168.493C15.0367 168.296 14.6882 168.197 14.3397 168.296C13.9911 168.345 13.7422 168.493 13.5928 168.79L12.5472 168.246C12.6966 167.95 12.9953 167.702 13.3439 167.505C13.6924 167.307 14.1405 167.257 14.5886 167.307C15.0367 167.356 15.5346 167.455 15.9828 167.702C16.6798 168.098 17.1777 168.543 17.3769 169.136C17.5761 169.729 17.5263 170.323 17.2275 170.916L15.684 173.734C15.3853 174.278 15.2359 174.772 15.1861 175.217L15.1363 175.316L14.0409 174.723ZM12.7464 172.943C13.0949 173.141 13.4434 173.19 13.8418 173.19C14.2401 173.19 14.5886 173.091 14.8376 172.844L15.5346 171.559L14.6882 171.114C13.3936 170.422 12.5472 170.471 12.1489 171.213C11.9497 171.559 11.9497 171.855 12.0493 172.152C12.1489 172.547 12.3978 172.795 12.7464 172.943Z" fill="white"/>
<path d="M22.6547 172.152C22.5053 172.053 22.3061 171.954 22.1568 171.855C21.4597 171.509 20.8124 171.608 20.2647 172.103L18.1735 176.602L17.0781 176.107L19.966 169.729L21.0116 170.224L20.7128 170.965C21.3103 170.57 21.9576 170.52 22.6547 170.817C22.8538 170.916 23.0032 171.015 23.1028 171.114L22.6547 172.152Z" fill="white"/>
<path d="M24.3975 178.332C24.7958 178.48 25.1941 178.48 25.5925 178.381C25.9908 178.233 26.2895 178.035 26.4389 177.689L27.4845 178.085C27.3351 178.431 27.0364 178.777 26.6879 179.024C26.3393 179.271 25.8912 179.42 25.3933 179.469C24.8954 179.519 24.4473 179.469 23.9992 179.271C23.1029 178.925 22.5054 178.332 22.2067 177.541C21.908 176.75 21.9577 175.811 22.3561 174.822L22.4059 174.624C22.6548 173.981 23.0033 173.487 23.4017 173.091C23.8498 172.696 24.2979 172.449 24.8456 172.35C25.3933 172.251 25.941 172.3 26.5385 172.547C27.2853 172.844 27.7832 173.289 28.1318 173.932C28.4305 174.575 28.4803 175.217 28.2314 175.959L27.1858 175.563C27.3351 175.118 27.2853 174.723 27.136 174.327C26.9368 173.932 26.6381 173.685 26.2397 173.487C25.692 173.289 25.1443 173.289 24.6962 173.586C24.1983 173.882 23.8498 174.377 23.551 175.168L23.4515 175.366C23.1527 176.107 23.1029 176.75 23.2523 177.294C23.4515 177.739 23.8 178.134 24.3975 178.332Z" fill="white"/>
<path d="M32.5629 182.04C32.5629 181.892 32.5629 181.645 32.6127 181.298C31.9156 181.694 31.1688 181.743 30.4219 181.496C29.7746 181.298 29.2767 180.952 28.978 180.409C28.6792 179.914 28.6295 179.37 28.7788 178.777C28.978 178.085 29.4261 177.64 30.0734 177.393C30.7207 177.195 31.5173 177.244 32.5131 177.541L33.6085 177.887L33.7579 177.343C33.9073 176.948 33.8575 176.602 33.7081 176.256C33.5587 175.959 33.2102 175.712 32.7621 175.563C32.3638 175.415 31.9654 175.415 31.6169 175.563C31.2684 175.662 31.0692 175.909 30.9696 176.157L29.8244 175.811C29.924 175.464 30.173 175.217 30.4717 174.97C30.8202 174.723 31.2186 174.575 31.6667 174.525C32.1148 174.476 32.6127 174.525 33.1106 174.673C33.9073 174.921 34.4052 175.316 34.7537 175.811C35.0524 176.354 35.1022 176.948 34.9031 177.59L33.9073 180.656C33.7081 181.249 33.6085 181.793 33.6583 182.188L33.6085 182.287L32.5629 182.04ZM30.9198 180.557C31.2684 180.656 31.6667 180.705 32.0152 180.606C32.4135 180.507 32.7123 180.359 32.9612 180.112L33.4094 178.728L32.5131 178.431C31.119 177.986 30.2725 178.184 30.0236 178.975C29.924 179.321 29.924 179.667 30.1232 179.914C30.2725 180.26 30.5713 180.458 30.9198 180.557Z" fill="white"/>
<path d="M40.181 182.188C40.2806 181.892 40.2308 181.595 40.0316 181.348C39.8325 181.101 39.4839 180.854 38.8865 180.557C38.289 180.26 37.8906 180.013 37.5919 179.766C37.2932 179.519 37.094 179.222 36.9944 178.925C36.8948 178.629 36.8948 178.332 36.9944 177.986C37.1438 177.442 37.4923 177.047 38.0898 176.75C38.6873 176.503 39.3346 176.453 40.0316 176.651C40.8283 176.849 41.376 177.195 41.7743 177.739C42.1726 178.283 42.2722 178.826 42.1228 179.469L40.9279 179.173C41.0274 178.876 40.9279 178.53 40.7287 178.233C40.5295 177.937 40.2308 177.739 39.7827 177.64C39.3346 177.541 38.986 177.541 38.7371 177.64C38.4383 177.739 38.289 177.986 38.1894 178.283C38.1396 178.579 38.1894 178.777 38.3388 179.024C38.5379 179.222 38.8865 179.469 39.4341 179.766C39.9818 180.062 40.43 180.31 40.7287 180.606C41.0275 180.903 41.2764 181.15 41.376 181.447C41.4756 181.743 41.4756 182.09 41.376 182.436C41.2266 183.029 40.8283 183.474 40.2806 183.721C39.7329 183.968 39.0358 183.968 38.2392 183.77C37.6915 183.622 37.2434 183.424 36.845 183.128C36.4965 182.831 36.1978 182.485 36.0484 182.09C35.899 181.694 35.899 181.298 35.9986 180.903L37.1438 181.2C37.0442 181.595 37.1438 181.941 37.3927 182.238C37.6417 182.534 37.9902 182.732 38.4383 182.881C38.8865 182.979 39.235 182.979 39.5835 182.881C39.9321 182.782 40.0814 182.485 40.181 182.188Z" fill="white"/>
<path d="M42.2723 186.539L41.7246 185.946C42.2225 185.501 42.571 184.957 42.7204 184.364L42.9694 183.326L44.1146 183.573L43.9154 184.512C43.8158 184.957 43.6167 185.353 43.3179 185.699C42.9694 186.045 42.6208 186.341 42.2723 186.539Z" fill="white"/>
<path d="M53.2759 186.687C53.2262 186.539 53.2262 186.292 53.2262 185.946C52.5789 186.44 51.8818 186.589 51.0852 186.49C50.3881 186.391 49.8902 186.094 49.4919 185.649C49.0935 185.204 48.994 184.66 49.0935 184.067C49.1931 183.326 49.5914 182.831 50.1889 182.534C50.7864 182.238 51.6329 182.139 52.6287 182.337L53.7739 182.534L53.8734 181.991C53.9232 181.595 53.8734 181.249 53.6743 180.952C53.4751 180.656 53.1266 180.507 52.6287 180.409C52.1806 180.359 51.832 180.409 51.5333 180.557C51.2345 180.705 51.0354 180.952 50.9856 181.249L49.7906 181.051C49.8404 180.705 50.0396 180.409 50.3383 180.112C50.637 179.815 51.0354 179.617 51.4835 179.519C51.9316 179.42 52.4295 179.37 52.9274 179.469C53.7241 179.617 54.3215 179.914 54.7199 180.359C55.1182 180.854 55.2676 181.397 55.168 182.139L54.6701 185.303C54.5705 185.946 54.5705 186.44 54.6701 186.836V186.935L53.2759 186.687ZM51.4835 185.451C51.832 185.501 52.2303 185.451 52.5789 185.353C52.9274 185.204 53.2262 185.007 53.4253 184.71L53.6743 183.276L52.7282 183.128C51.2843 182.881 50.4877 183.177 50.3383 184.067C50.2885 184.413 50.3383 184.759 50.5873 185.007C50.7864 185.254 51.0852 185.402 51.4835 185.451Z" fill="white"/>
<path d="M60.595 181.645C60.3959 181.595 60.2465 181.546 59.9975 181.546C59.2009 181.447 58.6532 181.694 58.2549 182.337L57.6574 187.281L56.4624 187.132L57.3088 180.211L58.454 180.359L58.3544 181.15C58.8026 180.557 59.4 180.359 60.1469 180.409C60.3959 180.458 60.5452 180.507 60.6448 180.557L60.595 181.645Z" fill="white"/>
<path d="M63.9812 179.222L63.8318 180.903L65.1263 181.002L65.0268 181.941L63.7322 181.842L63.3339 186.144C63.2841 186.44 63.3339 186.638 63.4335 186.786C63.533 186.935 63.7322 187.034 64.031 187.034C64.1803 187.034 64.3795 187.034 64.6284 186.984L64.5289 187.924C64.2301 187.973 63.8816 187.973 63.5828 187.973C63.0351 187.924 62.6368 187.726 62.4377 187.38C62.1887 187.034 62.0891 186.539 62.1389 185.995L62.5372 181.694L61.2427 181.595L61.3423 180.656L62.6368 180.755L62.7862 179.074L63.9812 179.222Z" fill="white"/>
<path d="M67.4167 188.171L66.2217 188.072L66.7196 181.101L67.9146 181.2L67.4167 188.171ZM66.7196 179.271C66.7196 179.074 66.8192 178.925 66.9187 178.777C67.0681 178.629 67.2175 178.579 67.4664 178.629C67.7154 178.678 67.8648 178.728 67.9644 178.876C68.0639 179.024 68.1137 179.173 68.1137 179.37C68.1137 179.568 68.0141 179.716 67.9146 179.865C67.7652 179.964 67.6158 180.062 67.3669 180.013C67.1179 179.964 66.9685 179.914 66.869 179.766C66.7694 179.617 66.7196 179.469 66.7196 179.271Z" fill="white"/>
<path d="M73.7898 186.638C73.7898 186.292 73.6902 186.045 73.4413 185.896C73.1923 185.699 72.794 185.55 72.1965 185.402C71.599 185.254 71.1011 185.056 70.7526 184.908C70.404 184.71 70.1551 184.512 70.0057 184.215C69.8563 183.968 69.7567 183.672 69.8065 183.326C69.8065 182.732 70.1053 182.287 70.6032 181.892C71.1011 181.496 71.7484 181.348 72.4952 181.348C73.2919 181.397 73.9392 181.595 74.4371 182.04C74.935 182.485 75.1341 182.979 75.1341 183.622L73.9392 183.573C73.9392 183.227 73.8396 182.979 73.5408 182.732C73.2421 182.485 72.9434 182.337 72.4952 182.337C72.0471 182.337 71.6986 182.386 71.4496 182.584C71.2007 182.782 71.0513 183.029 71.0513 183.326C71.0513 183.622 71.1509 183.82 71.3501 183.968C71.599 184.117 71.9973 184.265 72.5948 184.413C73.1923 184.562 73.6902 184.759 74.0387 184.957C74.3873 185.155 74.686 185.402 74.8354 185.649C74.9848 185.896 75.0843 186.243 75.0843 186.589C75.0843 187.231 74.7856 187.726 74.2877 188.072C73.7898 188.418 73.0927 188.616 72.2961 188.566C71.7484 188.566 71.2505 188.418 70.8024 188.22C70.3542 188.022 70.0555 187.726 69.8065 187.33C69.5576 186.984 69.458 186.589 69.458 186.144L70.653 186.193C70.653 186.589 70.8024 186.935 71.1011 187.182C71.3998 187.429 71.7982 187.577 72.2961 187.577C72.7442 187.577 73.1425 187.528 73.3915 187.33C73.6404 187.132 73.7898 186.935 73.7898 186.638Z" fill="white"/>
<path d="M78.4202 179.865V181.546H79.7148V182.485H78.4202V186.836C78.4202 187.132 78.47 187.33 78.5696 187.479C78.6691 187.627 78.8683 187.676 79.1671 187.676C79.3164 187.676 79.5156 187.676 79.7645 187.577V188.566C79.4658 188.665 79.1173 188.715 78.8185 188.715C78.2708 188.715 77.8725 188.566 77.6235 188.22C77.3746 187.874 77.2252 187.429 77.2252 186.836V182.485H75.9307V181.546H77.2252V179.865H78.4202Z" fill="white"/>
<path d="M85.9883 188.27C85.8887 188.121 85.8389 187.874 85.7891 187.528C85.2912 188.121 84.6439 188.467 83.8473 188.517C83.1502 188.566 82.5527 188.418 82.1046 188.072C81.6565 187.726 81.3577 187.231 81.3079 186.638C81.2582 185.896 81.5071 185.303 82.005 184.908C82.5527 184.463 83.2996 184.215 84.2954 184.117L85.4406 184.018L85.3908 183.474C85.341 183.078 85.1916 182.732 84.9427 182.485C84.6937 182.238 84.2954 182.139 83.7975 182.188C83.3494 182.238 83.0008 182.337 82.7519 182.584C82.4531 182.831 82.3535 183.078 82.3535 183.375L81.1586 183.474C81.1088 183.128 81.2582 182.782 81.4573 182.436C81.7063 182.09 82.005 181.793 82.4033 181.595C82.8017 181.397 83.2996 181.249 83.7975 181.2C84.5941 181.15 85.2414 181.298 85.7393 181.645C86.2372 181.991 86.4862 182.534 86.5857 183.276L86.8347 186.49C86.8845 187.132 86.9841 187.627 87.1832 188.022V188.121L85.9883 188.27ZM83.8971 187.479C84.2954 187.429 84.6439 187.33 84.9427 187.132C85.2912 186.935 85.4904 186.638 85.6397 186.341L85.5402 184.908L84.5941 184.957C83.1004 185.056 82.4033 185.55 82.5029 186.391C82.5527 186.786 82.6523 187.034 82.951 187.231C83.2 187.429 83.4987 187.528 83.8971 187.479Z" fill="white"/>
<path d="M94.9505 185.105L95.4982 179.617L96.743 179.37L95.5978 187.825C95.3986 189.061 94.8509 189.753 93.9049 189.951L93.6559 190H93.2078L93.0087 189.061L93.3572 189.011C93.7555 188.912 94.0543 188.764 94.2534 188.566C94.4526 188.368 94.5522 188.022 94.602 187.577L94.7015 186.836L90.8179 180.557L92.1124 180.31L94.9505 185.105Z" fill="white"/>
<path d="M102.17 176.157L102.668 177.788L103.913 177.442L104.162 178.332L102.917 178.678L104.112 182.831C104.212 183.078 104.311 183.276 104.461 183.375C104.61 183.474 104.809 183.474 105.108 183.424C105.257 183.375 105.407 183.326 105.656 183.177L105.905 184.117C105.606 184.265 105.357 184.413 105.058 184.512C104.56 184.66 104.112 184.611 103.764 184.364C103.415 184.117 103.166 183.721 102.967 183.177L101.772 179.024L100.527 179.37L100.278 178.48L101.523 178.134L101.025 176.503L102.17 176.157Z" fill="white"/>
<path d="M105.955 180.359C105.755 179.716 105.656 179.074 105.755 178.48C105.855 177.887 106.054 177.343 106.403 176.898C106.751 176.453 107.249 176.157 107.847 175.959C108.743 175.662 109.589 175.712 110.386 176.157C111.183 176.602 111.73 177.343 112.079 178.381L112.129 178.48C112.328 179.123 112.427 179.766 112.328 180.359C112.228 180.952 112.029 181.496 111.68 181.892C111.332 182.337 110.834 182.633 110.237 182.831C109.34 183.128 108.494 183.078 107.697 182.633C106.901 182.188 106.353 181.447 106.004 180.458L105.955 180.359ZM107.15 180.112C107.398 180.854 107.747 181.397 108.245 181.694C108.743 181.991 109.291 182.09 109.838 181.892C110.436 181.694 110.784 181.298 110.983 180.755C111.183 180.211 111.133 179.519 110.834 178.678C110.585 177.937 110.237 177.442 109.689 177.096C109.191 176.75 108.643 176.7 108.096 176.898C107.548 177.096 107.15 177.442 106.95 178.035C106.851 178.629 106.901 179.321 107.15 180.112Z" fill="white"/>
<path d="M115.962 174.327C115.763 174.377 115.614 174.426 115.415 174.476C114.668 174.772 114.319 175.267 114.269 175.959L116.062 180.606L114.917 181.051L112.377 174.525L113.473 174.13L113.772 174.871C113.921 174.13 114.319 173.635 115.016 173.388C115.216 173.289 115.415 173.289 115.564 173.289L115.962 174.327Z" fill="white"/>
<path d="M117.705 172.449L118.103 173.24C118.352 172.399 118.85 171.806 119.647 171.509C121.041 170.916 122.037 171.41 122.684 172.943L124.476 177.195L123.381 177.64L121.539 173.388C121.339 172.943 121.091 172.646 120.792 172.498C120.493 172.35 120.095 172.399 119.647 172.597C119.298 172.745 118.999 172.992 118.8 173.289C118.601 173.586 118.501 173.932 118.501 174.327L120.443 178.925L119.348 179.37L116.609 172.943L117.705 172.449Z" fill="white"/>
<path d="M129.157 175.217C128.31 175.613 127.464 175.662 126.667 175.366C125.871 175.069 125.223 174.426 124.775 173.487L124.676 173.289C124.377 172.646 124.228 172.053 124.228 171.46C124.228 170.867 124.377 170.323 124.676 169.828C124.974 169.334 125.373 168.988 125.871 168.741C126.717 168.345 127.464 168.345 128.211 168.642C128.958 168.938 129.505 169.631 130.003 170.669L130.202 171.114L125.871 173.141C126.169 173.734 126.617 174.179 127.115 174.377C127.663 174.575 128.211 174.575 128.709 174.327C129.107 174.13 129.406 173.932 129.555 173.635C129.754 173.339 129.904 173.042 129.953 172.696L130.85 172.894C130.85 173.932 130.202 174.723 129.157 175.217ZM126.319 169.581C125.871 169.779 125.572 170.125 125.423 170.57C125.273 171.015 125.323 171.559 125.522 172.152L128.709 170.669L128.659 170.57C128.36 170.026 128.012 169.68 127.613 169.482C127.215 169.383 126.767 169.383 126.319 169.581Z" fill="white"/>
<path d="M131.198 170.174C130.899 169.581 130.7 168.938 130.7 168.345C130.7 167.752 130.8 167.208 131.099 166.714C131.397 166.219 131.796 165.824 132.343 165.576C133.19 165.131 134.036 165.082 134.883 165.379C135.729 165.675 136.376 166.318 136.874 167.307L136.924 167.406C137.223 167.999 137.422 168.592 137.422 169.235C137.422 169.878 137.322 170.372 137.024 170.867C136.725 171.361 136.327 171.756 135.729 172.053C134.883 172.498 134.036 172.547 133.19 172.251C132.343 171.954 131.696 171.311 131.198 170.323V170.174ZM132.294 169.729C132.642 170.422 133.09 170.867 133.638 171.114C134.186 171.361 134.733 171.361 135.231 171.064C135.779 170.768 136.078 170.372 136.177 169.779C136.277 169.186 136.127 168.493 135.729 167.752C135.381 167.06 134.932 166.615 134.385 166.367C133.837 166.12 133.289 166.12 132.742 166.417C132.194 166.714 131.895 167.109 131.796 167.702C131.746 168.246 131.895 168.938 132.294 169.729Z" fill="white"/>
<path d="M142.75 165.824C142.6 165.527 142.351 165.379 142.053 165.379C141.754 165.329 141.306 165.428 140.708 165.626C140.111 165.824 139.613 165.922 139.214 165.922C138.816 165.922 138.468 165.873 138.219 165.774C137.92 165.626 137.721 165.428 137.522 165.131C137.223 164.637 137.223 164.093 137.422 163.5C137.621 162.907 138.069 162.412 138.717 162.066C139.414 161.671 140.061 161.522 140.708 161.621C141.355 161.72 141.804 162.066 142.152 162.61L141.107 163.203C140.957 162.907 140.658 162.758 140.31 162.659C139.961 162.61 139.563 162.659 139.214 162.857C138.816 163.055 138.567 163.352 138.468 163.599C138.368 163.895 138.368 164.143 138.517 164.439C138.667 164.686 138.866 164.835 139.165 164.835C139.463 164.835 139.862 164.785 140.459 164.588C141.057 164.39 141.555 164.291 141.953 164.291C142.351 164.241 142.7 164.34 142.999 164.439C143.297 164.588 143.546 164.785 143.696 165.131C143.994 165.675 144.044 166.219 143.795 166.812C143.546 167.406 143.098 167.9 142.401 168.296C141.903 168.592 141.455 168.741 140.957 168.79C140.459 168.839 140.061 168.741 139.663 168.592C139.264 168.444 138.966 168.147 138.766 167.801L139.812 167.208C140.011 167.554 140.31 167.752 140.708 167.801C141.107 167.851 141.505 167.752 141.903 167.505C142.301 167.257 142.55 167.01 142.7 166.714C142.899 166.367 142.899 166.071 142.75 165.824Z" fill="white"/>
<path d="M142.949 183.128C142.052 183.474 141.206 183.474 140.459 183.128C139.662 182.782 139.065 182.139 138.667 181.15L138.567 180.952C138.318 180.31 138.169 179.667 138.219 179.074C138.268 178.48 138.418 177.937 138.766 177.492C139.115 177.047 139.513 176.7 140.011 176.503C140.857 176.157 141.654 176.157 142.351 176.552C143.048 176.898 143.596 177.59 144.044 178.629L144.243 179.074L139.812 180.853C140.111 181.496 140.509 181.941 141.007 182.188C141.505 182.436 142.052 182.436 142.6 182.238C142.998 182.09 143.297 181.842 143.496 181.595C143.695 181.348 143.845 181.002 143.944 180.656L144.841 180.903C144.691 181.941 144.044 182.683 142.949 183.128ZM140.409 177.393C139.961 177.59 139.662 177.887 139.463 178.332C139.314 178.777 139.314 179.321 139.463 179.914L142.749 178.579L142.7 178.48C142.451 177.937 142.102 177.541 141.704 177.343C141.306 177.195 140.857 177.195 140.409 177.393Z" fill="white"/>
<path d="M145.588 174.575L145.886 175.415C146.185 174.624 146.733 174.08 147.579 173.833C148.973 173.388 149.969 173.932 150.517 175.514L151.961 179.914L150.816 180.26L149.372 175.86C149.222 175.366 148.973 175.069 148.675 174.921C148.376 174.772 148.027 174.772 147.529 174.921C147.181 175.02 146.882 175.267 146.633 175.514C146.434 175.811 146.285 176.107 146.235 176.503L147.778 181.249L146.633 181.595L144.442 174.921L145.588 174.575Z" fill="white"/>
<path d="M163.214 172.795C163.413 173.685 163.413 174.476 163.263 175.168C163.114 175.86 162.815 176.453 162.367 176.898L164.309 177.887L163.612 178.826L161.322 177.64C161.023 177.788 160.724 177.887 160.376 177.937C159.629 178.085 158.981 178.035 158.334 177.788C157.687 177.541 157.139 177.096 156.691 176.503C156.243 175.909 155.944 175.168 155.745 174.278L155.596 173.635C155.396 172.745 155.396 171.954 155.596 171.213C155.795 170.471 156.094 169.878 156.591 169.383C157.089 168.889 157.687 168.592 158.434 168.444C159.181 168.296 159.878 168.345 160.525 168.592C161.172 168.839 161.72 169.284 162.168 169.878C162.616 170.471 162.915 171.262 163.114 172.152L163.214 172.795ZM161.869 172.449C161.67 171.361 161.272 170.57 160.724 170.075C160.176 169.581 159.479 169.383 158.683 169.532C157.936 169.68 157.338 170.075 157.04 170.768C156.691 171.46 156.641 172.3 156.84 173.339L156.99 174.031C157.189 175.069 157.587 175.86 158.135 176.404C158.683 176.948 159.38 177.096 160.176 176.948C160.973 176.799 161.521 176.404 161.869 175.712C162.168 175.069 162.268 174.179 162.068 173.141L161.869 172.449Z" fill="white"/>
<path d="M169.985 175.761C169.587 176.354 168.939 176.701 168.043 176.799C167.296 176.898 166.699 176.75 166.251 176.354C165.802 175.959 165.554 175.366 165.454 174.525L164.956 169.977L166.151 169.828L166.649 174.327C166.749 175.366 167.246 175.86 168.143 175.761C169.039 175.662 169.636 175.267 169.836 174.525L169.288 169.482L170.483 169.334L171.23 176.305L170.084 176.453L169.985 175.761Z" fill="white"/>
<path d="M175.91 176.256C174.964 176.305 174.168 176.008 173.57 175.415C172.973 174.822 172.624 173.981 172.574 172.943V172.745C172.574 172.053 172.674 171.41 172.923 170.867C173.172 170.323 173.52 169.878 174.018 169.532C174.466 169.186 175.014 169.037 175.562 169.037C176.458 168.988 177.205 169.284 177.703 169.878C178.25 170.471 178.499 171.311 178.549 172.399V172.894L173.769 173.042C173.819 173.734 174.018 174.278 174.416 174.673C174.815 175.069 175.313 175.267 175.91 175.267C176.358 175.267 176.707 175.168 177.006 174.97C177.304 174.772 177.553 174.575 177.752 174.278L178.499 174.822C177.952 175.712 177.055 176.206 175.91 176.256ZM175.512 169.977C175.014 169.977 174.616 170.174 174.317 170.57C174.018 170.965 173.819 171.41 173.769 172.053L177.304 171.954V171.855C177.255 171.262 177.055 170.768 176.757 170.471C176.458 170.174 176.01 169.977 175.512 169.977Z" fill="white"/>
<path d="M183.528 170.224C183.329 170.174 183.129 170.174 182.93 170.174C182.134 170.174 181.586 170.471 181.287 171.114L181.188 176.058L179.993 176.008L180.142 169.037L181.337 169.087V169.878C181.735 169.284 182.333 168.988 183.03 168.988C183.279 168.988 183.428 169.037 183.578 169.087L183.528 170.224Z" fill="white"/>
<path d="M187.213 176.552C186.267 176.453 185.52 176.107 184.972 175.415C184.424 174.723 184.175 173.882 184.275 172.844V172.646C184.325 171.954 184.524 171.361 184.823 170.817C185.121 170.273 185.52 169.878 186.067 169.631C186.565 169.383 187.113 169.235 187.661 169.284C188.557 169.383 189.254 169.729 189.702 170.372C190.15 171.015 190.349 171.905 190.25 172.992L190.2 173.487L185.42 173.091C185.37 173.784 185.52 174.327 185.868 174.822C186.217 175.267 186.715 175.514 187.312 175.563C187.76 175.613 188.109 175.563 188.408 175.415C188.706 175.267 189.005 175.069 189.254 174.772L189.951 175.415C189.304 176.256 188.408 176.651 187.213 176.552ZM187.611 170.273C187.113 170.224 186.715 170.372 186.366 170.718C186.018 171.064 185.769 171.509 185.619 172.152L189.154 172.449V172.35C189.154 171.756 189.055 171.262 188.756 170.916C188.507 170.52 188.109 170.323 187.611 170.273ZM188.507 166.565L189.951 166.664L188.059 168.394L187.113 168.296L188.507 166.565Z" fill="white"/>
<path d="M194.183 168.493L193.934 170.174L195.229 170.372L195.079 171.311L193.785 171.114L193.187 175.415C193.138 175.712 193.187 175.909 193.287 176.058C193.387 176.206 193.586 176.305 193.835 176.354C193.984 176.354 194.183 176.354 194.432 176.354L194.283 177.294C193.934 177.343 193.636 177.343 193.337 177.294C192.789 177.195 192.441 176.997 192.192 176.651C191.943 176.305 191.893 175.811 191.992 175.217L192.59 170.916L191.295 170.718L191.445 169.779L192.69 169.977L192.938 168.296L194.183 168.493Z" fill="white"/>
<path d="M199.859 178.332C199.809 178.184 199.809 177.937 199.859 177.59C199.212 178.035 198.465 178.184 197.718 178.035C197.021 177.887 196.523 177.59 196.175 177.096C195.826 176.602 195.677 176.107 195.826 175.514C195.976 174.822 196.374 174.278 196.971 174.031C197.619 173.734 198.415 173.685 199.411 173.932L200.556 174.179L200.656 173.635C200.756 173.24 200.706 172.894 200.507 172.597C200.307 172.3 199.959 172.103 199.511 172.004C199.112 171.905 198.714 171.954 198.366 172.103C198.017 172.251 197.818 172.498 197.768 172.795L196.573 172.547C196.623 172.201 196.822 171.905 197.121 171.608C197.42 171.361 197.818 171.163 198.266 171.064C198.714 170.965 199.212 170.965 199.71 171.064C200.507 171.213 201.104 171.559 201.453 172.053C201.801 172.547 201.95 173.141 201.801 173.833L201.154 176.997C201.004 177.64 201.004 178.134 201.104 178.53V178.629L199.859 178.332ZM198.067 177.047C198.415 177.145 198.814 177.096 199.162 176.997C199.511 176.898 199.809 176.7 200.058 176.404L200.357 175.02L199.411 174.822C197.967 174.525 197.171 174.822 196.971 175.662C196.872 176.008 196.971 176.354 197.171 176.602C197.37 176.799 197.668 176.948 198.067 177.047Z" fill="white"/>
<path d="M207.477 174.179C207.328 174.08 207.129 174.031 206.929 173.981C206.183 173.784 205.585 173.932 205.087 174.525L203.743 179.321L202.598 179.024L204.44 172.3L205.585 172.597L205.386 173.388C205.934 172.894 206.531 172.745 207.278 172.943C207.527 172.992 207.676 173.091 207.776 173.19L207.477 174.179Z" fill="white"/>
<path d="M207.676 176.651C207.925 176.008 208.224 175.464 208.672 175.02C209.12 174.575 209.618 174.327 210.166 174.179C210.714 174.08 211.311 174.08 211.859 174.278C212.755 174.575 213.402 175.168 213.751 175.959C214.099 176.75 214.099 177.689 213.701 178.728L213.651 178.826C213.402 179.469 213.104 180.013 212.655 180.409C212.207 180.853 211.759 181.101 211.162 181.249C210.614 181.397 210.017 181.348 209.419 181.15C208.523 180.853 207.876 180.26 207.527 179.469C207.178 178.678 207.178 177.739 207.527 176.7L207.676 176.651ZM208.772 177.195C208.523 177.937 208.473 178.579 208.672 179.123C208.871 179.667 209.22 180.062 209.817 180.26C210.415 180.458 210.913 180.409 211.411 180.062C211.909 179.716 212.307 179.173 212.556 178.332C212.805 177.59 212.855 176.948 212.655 176.404C212.456 175.811 212.108 175.464 211.51 175.267C210.963 175.069 210.415 175.118 209.917 175.464C209.419 175.761 209.071 176.354 208.772 177.195Z" fill="white"/>
</g>
<defs>
<clipPath id="clip0_1114_1796">
<rect width="214" height="190" fill="white"/>
</clipPath>
</defs>
</svg>
