<svg width="62" height="30" viewBox="0 0 62 30" fill="none" xmlns="http://www.w3.org/2000/svg">
<g clip-path="url(#clip0_98_3714)">
<path d="M14.7714 2.44891C13.7184 1.58542 12.0451 1.17491 8.68396 0.382194C6.59229 -0.113252 5.78447 -0.113252 5.12091 0.311416C4.06786 0.97673 3.82263 2.71787 3.8082 3.60967C3.76493 5.80379 4.63044 23.3567 5.30843 25.5084C5.81332 27.1221 6.75097 27.4194 7.76074 27.0655C8.33775 26.8673 8.58298 26.202 8.74166 25.749C9.47735 23.6115 8.1935 22.3234 8.75608 19.6763C8.88591 19.0251 9.07344 18.6288 9.34752 18.289C10.1121 17.3406 11.3382 17.1849 11.7998 17.1C14.2377 16.6045 16.5313 13.5469 17.2237 10.8998C17.9739 8.01207 17.1516 4.4307 14.7714 2.44891ZM10.9776 12.7117C10.3861 13.278 9.20327 14.0565 8.59741 13.6743C8.16465 13.4054 7.68861 6.73806 8.26562 6.38417C9.13114 5.86041 11.9874 7.41753 12.2182 9.71074C12.3913 11.2962 11.2228 12.4711 10.9776 12.7117Z" fill="white"/>
<path d="M32.481 3.40872C30.5723 1.57847 27.0684 -0.0701993 24.5036 0.869802C19.8105 2.58679 19.0868 12.5223 21.8274 19.3076C22.2554 20.3471 24.7016 26.4457 28.1463 26.2904C30.7913 26.1664 32.5219 22.4428 32.6071 22.221C32.6885 22.0222 34.0036 19.0553 32.8776 18.1587C32.1348 17.5622 30.9646 17.6497 30.3439 19.0567C29.6729 20.6205 28.2742 21.3543 27.603 21.3364C26.4988 21.3169 25.6537 17.3039 25.5351 16.7175C24.9627 14.0957 24.77 5.89547 26.1115 5.64782C27.1801 5.44892 29.9706 7.33232 30.5248 8.91229C30.788 9.64095 30.7388 10.2229 31.3142 10.9566C31.4121 11.091 32.2654 12.1781 33.0805 12.0548C34.2155 11.8906 35.0206 9.38135 34.6953 7.29672C34.4054 5.28881 33.0599 3.97773 32.481 3.40872Z" fill="white"/>
<path d="M40.1642 8.82617C41.6476 7.03889 41.6732 6.24867 42.5946 5.5344C42.7539 5.40474 43.6631 4.73115 44.8637 4.79486C46.1512 4.86982 47.0035 5.74541 47.5573 6.31005C48.1306 6.91009 49.4463 8.24943 49.1137 9.6127C48.8606 10.6599 47.7587 11.1724 46.5316 11.7509C45.6897 12.1491 44.0489 12.7516 42.095 13.1422C41.5976 13.2445 41.3343 13.2691 41.0418 13.4919C40.2658 14.0724 40.4922 15.0267 40.2956 16.9921C40.0303 19.6906 39.3001 21.0235 40.1329 21.8637C40.2939 22.0301 40.4614 22.1246 40.5638 22.1848C41.4289 22.6652 45.6776 22.8579 45.9375 22.4924C46.0894 22.2867 45.9194 21.9994 45.7095 21.4933C45.3596 20.6498 45.1974 19.833 44.8772 18.1857C44.6067 16.7749 44.4755 16.056 44.8435 15.5307C45.2074 15.0191 45.7739 14.9374 46.5273 14.7343C48.2641 14.264 50.2217 13.3574 51.2601 12.3531C52.681 10.9756 52.8142 9.02074 52.832 8.76009C53.0342 4.96415 48.9015 2.47165 48.2868 2.11042C47.29 1.51665 45.5802 0.487894 43.3068 0.738547C39.5225 1.15768 37.8002 4.74998 37.529 5.30418C37.1311 6.13077 36.4579 7.52512 37.133 8.53979C37.5674 9.20168 38.5885 9.71408 39.3541 9.47032C39.7271 9.33075 39.9465 9.10087 40.1642 8.82617Z" fill="white"/>
<path d="M42.8495 24.76C43.9915 24.7176 44.7031 25.6102 44.8991 25.8609C45.1423 26.1553 45.5815 26.7004 45.4794 27.3939C45.3498 28.3303 44.3535 28.7414 44.2502 28.7844C43.3116 29.1537 42.2458 28.7905 41.6034 28.1698C41.4757 28.0429 40.6211 27.2257 40.8701 26.1921C41.1022 25.3159 42.0261 24.7944 42.8495 24.76Z" fill="white"/>
</g>
<defs>
<clipPath id="clip0_98_3714">
<rect width="62" height="30" fill="white"/>
</clipPath>
</defs>
</svg>
