<svg width="137" height="123" viewBox="0 0 137 123" fill="none" xmlns="http://www.w3.org/2000/svg">
<path d="M73.9828 88.7533C73.9509 88.5933 73.7597 87.8571 73.1859 87.6331C72.7078 87.4411 72.4209 87.7931 71.6559 87.8251C70.9865 87.8571 70.1896 87.6331 69.7434 87.185C69.329 86.7689 69.329 86.2568 69.3609 84.5605C69.3609 80.2077 69.2653 80.8478 69.3609 79.3755C69.4246 78.1272 69.4884 77.9992 69.3928 77.5831C69.074 76.2389 67.9584 75.4067 67.0021 74.7026C65.4721 73.5504 64.0058 73.1663 63.6871 73.1023C62.6033 72.8142 60.5633 72.3341 58.9058 73.2943C58.1089 73.7744 57.1527 74.4145 57.3758 75.6308C57.6627 77.2631 59.4796 76.975 59.6389 76.911C60.3402 76.623 61.8702 76.0468 63.0177 76.1749C63.5277 76.2389 64.6115 76.751 64.8346 76.975C65.5996 77.7432 66.0777 79.0554 65.5996 79.5675C65.3446 79.8556 64.8665 79.8556 64.8027 79.8236C64.1971 79.6315 64.0696 79.5355 63.8146 79.3755C62.7308 78.6714 61.1052 79.0234 60.8502 79.1194C59.4158 79.5035 58.6827 80.5277 58.332 80.9758C57.3758 82.2881 57.2802 83.6323 57.2483 84.2404C57.2164 84.8486 57.0889 86.897 58.587 88.6893C59.7346 90.0656 61.6471 91.0578 63.3365 90.8017C64.1015 90.7057 64.9621 90.5777 65.759 89.9376C66.1415 89.6175 66.4284 89.2654 66.9384 89.2654C67.3527 89.2334 67.6715 89.4895 68.0859 89.7775C69.3609 90.7057 70.0303 91.1538 70.2853 91.2818C71.0503 91.6019 72.2934 91.7299 73.154 90.9938C73.7278 90.5137 74.1741 89.6175 73.9828 88.7533ZM63.974 86.8329C62.8902 87.377 61.4239 87.089 60.7546 86.1608C60.1489 85.2966 60.4358 84.2724 60.4996 83.9524C60.5633 83.7283 60.8821 82.4801 62.0933 81.968C62.3165 81.872 63.209 81.5199 64.1333 82C64.994 82.4801 65.2171 83.3763 65.249 83.5043C65.6952 84.8486 65.1215 86.2568 63.974 86.8329Z" fill="white"/>
<path d="M102.734 58.7315C102.702 58.4754 102.415 57.1632 101.427 56.7151C100.598 56.331 100.088 56.9071 98.7497 56.9071C97.5703 56.9071 96.1997 56.459 95.4666 55.6269C94.7653 54.8587 94.8609 53.9945 94.9884 51.05C95.3709 43.4965 95.1478 44.6167 95.4028 42.0562C95.6259 39.8798 95.7216 39.6877 95.5941 38.9516C95.1159 36.5511 93.299 35.0788 91.7053 33.7666C89.1234 31.6542 86.6052 30.886 86.0633 30.694C84.2146 30.1179 80.7083 29.0937 77.7439 30.662C76.3095 31.3981 74.6201 32.4543 74.8751 34.5667C75.2257 37.4153 78.3814 37.0632 78.7002 36.9672C79.9433 36.5191 82.6527 35.655 84.5971 35.975C85.4577 36.1351 87.3384 37.1272 87.689 37.5433C88.9321 38.9196 89.6653 41.2561 88.8046 42.1202C88.3584 42.5683 87.5296 42.5363 87.4021 42.5043C86.3502 42.1522 86.1271 41.9602 85.7127 41.6401C83.864 40.3279 81.0589 40.84 80.5808 40.936C78.0627 41.4801 76.692 43.2084 76.0864 43.9446C74.3014 46.121 74.0464 48.4575 73.9189 49.5137C73.8232 50.5699 73.4407 54.1226 75.8314 57.3552C77.712 59.8517 80.9314 61.708 83.8958 61.42C85.2346 61.292 86.7327 61.1319 88.1671 60.1397C88.8684 59.6596 89.4103 59.0515 90.2709 59.0515C91.004 59.0515 91.514 59.4676 92.2472 60.0437C94.4147 61.74 95.4666 62.6042 95.9447 62.8283C97.2197 63.4364 99.3872 63.7564 100.981 62.6042C102.128 61.7721 102.989 60.2358 102.734 58.7315ZM85.5852 54.7627C83.6408 55.6269 81.1227 54.9867 80.0389 53.3224C79.0508 51.7861 79.6245 50.0258 79.8158 49.4496C79.9433 49.0656 80.6127 46.9212 82.7483 46.153C83.1308 46.025 84.7246 45.4489 86.2546 46.377C87.7209 47.2732 88.0396 48.8415 88.0715 49.0976C88.709 51.434 87.5934 53.8345 85.5852 54.7627Z" fill="white"/>
<path d="M65.3122 58.7315C65.2804 58.4754 64.9935 57.1632 64.0054 56.7151C63.1766 56.331 62.6666 56.9071 61.3278 56.9071C60.1484 56.9071 58.7778 56.459 58.0447 55.6269C57.3434 54.8587 57.4391 53.9945 57.5666 51.05C57.9491 43.4965 57.7259 44.6167 57.9809 42.0562C58.2041 39.8798 58.2997 39.6877 58.1722 38.9516C57.6941 36.5511 55.8772 35.0788 54.2834 33.7666C51.7015 31.6542 49.1834 30.886 48.6415 30.694C46.7927 30.1179 43.2864 29.0937 40.322 30.662C38.8876 31.3981 37.1982 32.4543 37.4532 34.5667C37.8039 37.4153 40.9595 37.0632 41.2783 36.9672C42.5214 36.5191 45.2308 35.655 47.1752 35.975C48.0358 36.1351 49.9165 37.1272 50.2671 37.5433C51.5102 38.9196 52.2434 41.2561 51.3827 42.1202C50.9365 42.5683 50.1077 42.5363 49.9802 42.5043C48.9284 42.1522 48.7052 41.9602 48.2908 41.6401C46.4421 40.3279 43.637 40.84 43.1589 40.936C40.6408 41.4801 39.2701 43.2084 38.6645 43.9446C36.8795 46.121 36.6245 48.4575 36.497 49.5137C36.4014 50.5699 36.0189 54.1226 38.4095 57.3552C40.2901 59.8517 43.5096 61.708 46.474 61.42C47.8127 61.292 49.3109 61.1319 50.7452 60.1397C51.4465 59.6596 51.9884 59.0515 52.849 59.0515C53.5821 59.0515 54.0921 59.4676 54.8253 60.0437C56.9928 61.74 58.0447 62.6042 58.5228 62.8283C59.7978 63.4364 61.9653 63.7564 63.5591 62.6042C64.7066 61.7721 65.5672 60.2358 65.3122 58.7315ZM48.1633 54.7627C46.219 55.6269 43.7008 54.9867 42.617 53.3224C41.6289 51.7861 42.2027 50.0258 42.3939 49.4496C42.5214 49.0656 43.1908 46.9212 45.3264 46.153C45.7089 46.025 47.3027 45.4489 48.8327 46.377C50.299 47.2732 50.6177 48.8415 50.6496 49.0976C51.2871 51.434 50.1715 53.8345 48.1633 54.7627Z" fill="white"/>
<path d="M103.371 90.2256C103.339 90.0656 103.18 89.3294 102.606 89.0734C102.128 88.8493 101.841 89.1694 101.076 89.1694C100.407 89.1694 99.61 88.9133 99.1956 88.4332C98.8131 87.9852 98.8449 87.5051 98.9406 85.8087C99.1637 81.4559 99.0362 82.096 99.1956 80.6237C99.3231 79.3755 99.1318 74.6706 98.8449 72.7182C98.6537 71.4379 98.1756 67.7252 96.9962 67.8212C93.6811 68.1093 94.7649 73.2303 94.8924 75.1507C94.988 76.5269 95.8805 80.1436 95.4024 80.6557C95.1474 80.9118 94.6693 80.8798 94.6055 80.8798C94.1274 80.8478 93.8087 80.5277 93.6174 80.3997C92.5974 79.5995 90.9399 79.9196 90.6849 79.9836C89.2505 80.3037 88.4536 81.2959 88.103 81.7119C87.083 82.9602 86.9236 84.3044 86.8598 84.9126C86.7961 85.5207 86.573 87.5691 87.9755 89.4254C89.0592 90.8657 90.908 91.9219 92.6293 91.7619C93.3943 91.6979 94.2549 91.6019 95.0837 91.0258C95.498 90.7377 95.7849 90.3856 96.2949 90.3856C96.7093 90.3856 97.0281 90.6417 97.4424 90.9617C98.6856 91.9539 99.2912 92.434 99.5781 92.5621C100.311 92.9141 101.554 93.1062 102.479 92.434C103.021 91.9859 103.531 91.1218 103.371 90.2256ZM93.4899 88.1772C92.3743 88.6893 90.908 88.3052 90.3024 87.345C89.7286 86.4809 90.0792 85.4247 90.1749 85.1046C90.2386 84.8806 90.653 83.6643 91.8643 83.2162C92.0874 83.1522 93.0118 82.8001 93.8724 83.3443C94.733 83.8564 94.8924 84.7845 94.9243 84.9126C95.498 87.025 94.4461 87.7291 93.4899 88.1772Z" fill="white"/>
<path d="M32.6408 5.53707C30.3139 3.58469 26.6164 2.65651 19.1894 0.864161C14.5675 -0.256057 12.7825 -0.256057 11.3162 0.70413C8.98931 2.20842 8.44743 6.14519 8.41556 8.16159C8.31993 13.1226 10.2324 52.8103 11.7306 57.6753C12.8462 61.324 14.9181 61.9961 17.1494 61.1959C18.4244 60.7478 18.9663 59.2436 19.3169 58.2194C20.9425 53.3864 18.1056 50.4738 19.3488 44.4887C19.6357 43.0164 20.05 42.1202 20.6557 41.3521C22.3451 39.2076 25.0545 38.8556 26.0745 38.6635C31.4614 37.5433 36.5296 30.63 38.0596 24.6448C39.7171 18.1155 37.9002 10.0179 32.6408 5.53707ZM24.2576 28.7416C22.9507 30.0219 20.3369 31.7822 18.9982 30.918C18.0419 30.3099 16.99 15.235 18.265 14.4348C20.1775 13.2506 26.4888 16.7713 26.9989 21.9563C27.3814 25.541 24.7995 28.1975 24.2576 28.7416Z" fill="white"/>
<path d="M58.2682 19.9719C56.8338 19.3318 55.0807 19.8119 53.9651 20.612C53.6782 20.8041 51.9569 22.0523 52.1801 23.6846C52.3713 25.0609 53.9013 25.9571 55.017 26.2131C56.7701 26.6292 57.6626 25.573 58.8101 26.1171C59.9895 26.6932 60.2764 28.4535 60.4039 29.3817C61.137 34.8228 61.1689 43.4005 61.6789 49.0336C61.8383 50.8259 63.3045 52.3942 64.2608 52.6503C65.4083 52.9703 68.8508 52.4582 69.329 50.1218C69.9665 47.0492 68.2771 44.8727 66.8108 33.9906C66.3327 30.534 65.7589 28.8696 67.0658 27.5254C68.0858 26.5012 69.6158 25.509 71.0821 25.893C73.6959 26.5652 74.0784 29.3497 75.8315 29.2857C77.1384 29.2217 78.4772 27.5894 78.5728 26.1171C78.764 23.5886 75.4171 21.5082 73.0902 20.8361C70.6358 20.1319 68.1815 20.0999 65.6952 21.4442C64.0377 22.3404 63.9739 23.3325 62.8902 23.0765C61.2645 22.6924 60.1808 20.8041 58.2682 19.9719Z" fill="white"/>
<path d="M36.0833 63.9805C33.1508 61.9321 28.1464 60.4918 24.9588 62.3482C19.1256 65.7408 20.3688 79.3755 25.5007 87.9532C26.2976 89.2654 30.8876 96.9789 35.4139 95.9867C38.8883 95.2186 40.3546 89.7775 40.4183 89.4574C40.4821 89.1694 41.5658 84.8486 39.8765 83.8884C38.7608 83.2482 37.2308 83.6323 36.7208 85.6807C36.1789 87.9532 34.4895 89.2654 33.597 89.3934C32.1308 89.6175 30.1226 84.3685 29.8357 83.6003C28.497 80.1756 26.4251 69.1015 28.1464 68.4614C29.517 67.9493 33.6289 69.8696 34.7127 71.886C35.2227 72.8142 35.2864 73.6144 36.2108 74.4785C36.3702 74.6386 37.7408 75.9188 38.7927 75.5667C40.259 75.0866 40.769 71.5019 39.8765 68.7494C39.0477 66.0929 36.9758 64.6206 36.0833 63.9805Z" fill="white"/>
<path d="M42.6174 77.5191C42.4581 78.0952 42.5856 83.5363 42.9043 85.5847C43.2868 87.8571 43.2231 90.2256 44.5618 91.6979C45.3268 92.53 46.6337 93.1702 47.6856 93.0101C50.905 92.5941 50.3631 90.4496 51.8932 90.7697C52.1163 90.8017 52.4669 90.8977 52.8494 91.4098C53.8057 92.5941 54.9532 93.5863 55.6226 93.5222C56.2601 93.4582 57.4076 92.402 57.2801 91.3138C57.1207 89.9375 53.5507 90.4816 53.965 85.2646C54.2519 81.6799 53.8375 80.3677 54.7938 78.6393C56.1326 76.1749 52.3713 75.2147 51.1281 76.5909C50.4906 77.2951 50.7138 81.936 50.4906 83.6643C50.2675 85.2646 50.2356 88.1452 49.1519 88.3692C47.2394 88.7533 46.7294 87.121 46.3787 85.2326C45.9962 83.0562 46.4106 80.9758 46.8887 78.9274C47.1437 77.8072 46.6656 76.719 45.8368 76.2069C44.6575 75.4707 42.9681 76.1428 42.6174 77.5191Z" fill="white"/>
<path d="M85.0436 84.3044C85.1711 83.6963 84.8523 78.3193 84.4379 76.2389C83.9917 73.9664 83.9279 71.63 82.5254 70.1897C81.7285 69.3895 80.4216 68.8134 79.3379 69.0055C76.1503 69.5496 76.7879 71.662 75.226 71.4059C75.0028 71.3739 74.6522 71.2779 74.2378 70.8298C73.2178 69.6776 72.0384 68.7494 71.4009 68.8454C70.7634 68.9414 69.6797 70.0297 69.839 71.1179C70.0622 72.4941 73.6003 71.822 73.3772 77.039C73.2178 80.6237 73.696 81.904 72.8034 83.6963C71.5603 86.2248 75.3535 87.025 76.5329 85.5847C77.1385 84.8485 76.7241 80.2396 76.8835 78.4793C77.0429 76.847 76.9472 73.9984 78.031 73.7424C79.9435 73.2943 80.5173 74.8946 80.9316 76.751C81.4098 78.8954 81.0591 81.0078 80.6766 83.0882C80.4854 84.2084 80.9954 85.2966 81.8242 85.7767C83.0992 86.4169 84.7567 85.6807 85.0436 84.3044Z" fill="white"/>
<path d="M111.85 77.3911C110.256 74.7346 106.495 73.0382 103.658 74.5425C100.534 76.2069 100.63 80.6877 101.523 83.1522C101.778 83.8564 102.574 86.1288 104.933 87.057C105.061 87.089 107.356 87.9852 109.523 86.8649C112.424 85.3286 113.826 80.6877 111.85 77.3911ZM108.216 82.9922C107.196 83.6643 105.698 83.5043 104.933 82.6401C104.232 81.84 104.423 80.7838 104.487 80.4637C104.519 80.2397 104.742 78.9594 105.889 78.3513C106.081 78.2553 106.941 77.7752 107.898 78.1592C108.822 78.5433 109.109 79.4075 109.173 79.5675C109.714 80.8478 109.268 82.3201 108.216 82.9922Z" fill="white"/>
<path d="M109.173 40.4239C111.181 35.5909 110.735 33.8626 112.233 31.7182C112.488 31.3341 113.986 29.2857 116.568 28.6456C119.341 27.9735 121.7 29.3177 123.23 30.1819C124.823 31.1101 128.457 33.1585 128.617 36.3271C128.744 38.7596 126.736 40.5839 124.505 42.6323C122.975 44.0406 119.883 46.4091 115.994 48.5215C115.006 49.0656 114.464 49.2896 113.986 49.9618C112.711 51.7221 113.795 53.6425 114.623 58.0273C115.771 64.0445 115.07 67.4052 117.365 68.6854C117.811 68.9415 118.225 69.0375 118.48 69.1015C120.616 69.5816 129.732 67.2451 130.051 66.2849C130.242 65.7408 129.7 65.2287 128.935 64.2685C127.66 62.6682 126.8 61.0039 125.078 57.6432C123.612 54.7627 122.879 53.2904 123.325 51.9141C123.772 50.5699 124.919 50.0258 126.385 49.0976C129.764 46.9532 133.334 43.7205 134.896 40.872C137.032 36.9672 136.075 32.6464 135.948 32.0703C133.972 23.7166 123.644 20.9961 122.114 20.612C119.628 19.9719 115.357 18.8517 110.703 20.8681C102.957 24.2287 101.586 33.1265 101.363 34.5027C101.045 36.5511 100.503 40.0078 102.575 41.7682C103.913 42.9204 106.4 43.3685 107.866 42.3443C108.567 41.8002 108.886 41.16 109.173 40.4239Z" fill="white"/>
<path d="M124.951 73.1983C127.342 72.3661 129.414 73.8384 129.987 74.2545C130.689 74.7346 131.964 75.6307 132.187 77.1991C132.505 79.3115 130.657 80.8478 130.465 81.0078C128.712 82.4161 126.226 82.3201 124.473 81.3919C124.122 81.1998 121.795 79.9836 121.668 77.5831C121.604 75.5347 123.23 73.8064 124.951 73.1983Z" fill="white"/>
<path d="M60.1807 69.9657C60.1807 69.0695 62.6988 67.3091 64.5157 66.445C65.8863 65.8048 67.0976 65.2287 67.7351 66.0609C68.1814 66.637 68.3407 67.8532 67.9264 68.4614C67.1614 69.6776 65.6632 68.4614 63.6551 70.2857C63.1451 70.7338 61.7107 71.3419 61.0094 71.1819C60.4038 71.0219 60.1807 70.4457 60.1807 69.9657Z" fill="white"/>
</svg>
